<?xml version="1.0" standalone="no"?>
<!DOCTYPE svg PUBLIC "-//W3C//DTD SVG 20010904//EN"
 "http://www.w3.org/TR/2001/REC-SVG-20010904/DTD/svg10.dtd">
<svg version="1.0" xmlns="http://www.w3.org/2000/svg"
 width="580.000000pt" height="386.000000pt" viewBox="0 0 580.000000 386.000000"
 preserveAspectRatio="xMidYMid meet">

<g transform="translate(0.000000,386.000000) scale(0.100000,-0.100000)"
fill="#fff" stroke="none">
<path d="M2766 3144 c-133 -29 -256 -101 -349 -204 -50 -56 -111 -157 -122
-203 -8 -31 -24 -42 -77 -50 -122 -19 -259 -129 -324 -262 l-39 -79 0 -126 c0
-125 0 -125 38 -203 64 -130 175 -222 311 -259 l46 -12 0 -98 c0 -54 3 -98 8
-98 4 0 23 4 42 10 80 22 285 51 438 61 234 16 535 -8 763 -60 24 -6 47 -11
52 -11 4 0 7 44 7 99 l0 99 46 11 c209 53 344 234 344 461 0 240 -144 422
-372 469 -54 12 -56 13 -73 59 -108 289 -431 462 -739 396z m299 -60 c78 -20
158 -63 223 -120 62 -55 143 -174 173 -253 l21 -59 70 -16 c290 -66 431 -341
309 -602 -49 -105 -151 -191 -263 -222 l-38 -10 0 132 0 133 58 5 c31 3 73 13
92 21 l35 15 -67 1 c-103 1 -201 38 -413 156 -303 167 -400 200 -532 176 -85
-15 -119 -33 -48 -25 28 3 66 2 85 -3 l35 -10 -35 -15 c-19 -8 -111 -59 -205
-112 -219 -124 -302 -157 -420 -164 -88 -5 -89 -6 -56 -19 18 -8 62 -17 97
-20 l65 -6 -3 -131 -3 -131 -25 3 c-97 14 -222 117 -277 230 -37 73 -38 80
-38 181 0 98 2 111 32 174 56 119 179 221 290 243 l33 6 -5 -93 -6 -94 26 84
c36 116 61 175 112 255 163 255 407 360 678 290z m-85 -735 c35 -16 139 -72
230 -124 91 -51 193 -104 227 -117 l63 -23 0 -233 c0 -218 -1 -233 -17 -228
-38 12 -213 45 -303 57 -120 16 -425 17 -551 0 -53 -6 -146 -22 -208 -34 -61
-13 -114 -21 -116 -18 -3 2 -5 107 -5 232 l0 227 28 7 c44 11 186 80 280 137
106 64 272 148 292 148 8 0 44 -14 80 -31z"/>
<path d="M2109 1465 c-60 -33 -63 -137 -7 -258 40 -87 79 -122 147 -131 50 -7
52 -8 102 -82 145 -216 325 -305 584 -291 229 13 412 122 516 307 13 22 30 41
38 41 9 1 21 2 26 4 6 1 15 3 22 3 6 1 27 28 46 60 97 164 157 269 157 275 0
27 -28 -11 -95 -128 -45 -78 -84 -135 -92 -135 -20 0 -16 9 67 152 38 66 70
125 70 129 0 26 -23 -4 -91 -123 -71 -123 -99 -159 -99 -127 0 7 34 73 76 147
42 73 74 136 70 139 -8 8 -2 17 -91 -134 -45 -78 -83 -133 -92 -133 -20 0 -19
2 70 155 42 71 74 131 72 133 -10 10 -30 -20 -115 -168 l-91 -160 16 -28 c16
-26 16 -31 2 -58 -51 -95 -170 -208 -262 -249 -157 -70 -397 -65 -549 12 -63
32 -182 150 -224 224 l-31 55 19 53 c22 56 20 81 -13 145 -27 56 -115 146
-162 167 -48 22 -52 22 -86 4z"/>
<path d="M2553 1434 c-42 -21 -59 -62 -43 -109 22 -67 101 -82 151 -29 66 71
-20 182 -108 138z"/>
<path d="M3175 1441 c-34 -14 -57 -48 -58 -87 -1 -29 5 -42 31 -65 18 -16 41
-29 53 -29 98 0 132 139 43 176 -38 16 -41 16 -69 5z"/>
</g>
</svg>
